# xmcd CD database file
#
# Track frame offsets:
#	150
#	25210
#	76983
#	100497
#	118829
#	153944
#	172115
#	194785
#	225117
#
# Disc length: 3571 seconds
#
# Revision: 0
# Processed by: cddbd v1.5.1PL0 Copyright (c) Steve Scherf et al.
# Submitted via: CDex 1.51
#
DISCID=6e0df109
DTITLE=chillout 4 - voyage cd2
DYEAR=1996
DGENRE=New Age
TTITLE0=sonic assault - walking hone
TTITLE1=chi-a.d. - creator
TTITLE2=transistor - syrige
TTITLE3=chakra of dreams - voodoo land
TTITLE4=celtoc cross - mundis imaginalus
TTITLE5=om - ibra
TTITLE6=vision 2000 - crossover the sea
TTITLE7=software - forgiveness to hate
TTITLE8=jaia - after the rain
EXTD=YEAR: 1996
EXTT0=
EXTT1=
EXTT2=
EXTT3=
EXTT4=
EXTT5=
EXTT6=
EXTT7=
EXTT8=
PLAYORDER=
